<svg width="32" height="32" viewBox="0 0 32 32" fill="none" xmlns="http://www.w3.org/2000/svg">
<path fill-rule="evenodd" clip-rule="evenodd" d="M22.7073 20.2918C22.8004 20.3847 22.8743 20.4951 22.9247 20.6166C22.9752 20.7381 23.0011 20.8683 23.0011 20.9998C23.0011 21.1314 22.9752 21.2616 22.9247 21.3831C22.8743 21.5046 22.8004 21.6149 22.7073 21.7078L16.7073 27.7078C16.6144 27.801 16.5041 27.8748 16.3826 27.9253C16.2611 27.9757 16.1308 28.0016 15.9993 28.0016C15.8678 28.0016 15.7375 27.9757 15.616 27.9253C15.4946 27.8748 15.3842 27.801 15.2913 27.7078L9.29131 21.7078C9.10354 21.5201 8.99805 21.2654 8.99805 20.9998C8.99805 20.7343 9.10354 20.4796 9.29131 20.2918C9.47908 20.1041 9.73376 19.9986 9.99931 19.9986C10.2649 19.9986 10.5195 20.1041 10.7073 20.2918L15.9993 25.5858L21.2913 20.2918C21.3842 20.1987 21.4946 20.1248 21.616 20.0744C21.7375 20.024 21.8678 19.998 21.9993 19.998C22.1308 19.998 22.2611 20.024 22.3826 20.0744C22.5041 20.1248 22.6144 20.1987 22.7073 20.2918Z" fill="#007BFF"/>
<path fill-rule="evenodd" clip-rule="evenodd" d="M16 12C16.2652 12 16.5196 12.1054 16.7071 12.2929C16.8946 12.4804 17 12.7348 17 13V26C17 26.2652 16.8946 26.5196 16.7071 26.7071C16.5196 26.8946 16.2652 27 16 27C15.7348 27 15.4804 26.8946 15.2929 26.7071C15.1054 26.5196 15 26.2652 15 26V13C15 12.7348 15.1054 12.4804 15.2929 12.2929C15.4804 12.1054 15.7348 12 16 12ZM4 7C4 6.73478 4.10536 6.48043 4.29289 6.29289C4.48043 6.10536 4.73478 6 5 6H27C27.2652 6 27.5196 6.10536 27.7071 6.29289C27.8946 6.48043 28 6.73478 28 7C28 7.26522 27.8946 7.51957 27.7071 7.70711C27.5196 7.89464 27.2652 8 27 8H5C4.73478 8 4.48043 7.89464 4.29289 7.70711C4.10536 7.51957 4 7.26522 4 7Z" fill="#007BFF"/>
</svg>
