<svg xmlns="http://www.w3.org/2000/svg" width="14" height="11" fill="none" viewBox="0 0 14 11"><path fill="#000" fill-rule="evenodd" d="M0.8125 9.9375C0.8125 9.78832 0.871763 9.64524 0.977253 9.53975C1.08274 9.43426 1.22582 9.375 1.375 9.375H12.625C12.7742 9.375 12.9173 9.43426 13.0227 9.53975C13.1282 9.64524 13.1875 9.78832 13.1875 9.9375C13.1875 10.0867 13.1282 10.2298 13.0227 10.3352C12.9173 10.4407 12.7742 10.5 12.625 10.5H1.375C1.22582 10.5 1.08274 10.4407 0.977253 10.3352C0.871763 10.2298 0.8125 10.0867 0.8125 9.9375ZM0.8125 5.4375C0.8125 5.28832 0.871763 5.14524 0.977253 5.03975C1.08274 4.93426 1.22582 4.875 1.375 4.875H12.625C12.7742 4.875 12.9173 4.93426 13.0227 5.03975C13.1282 5.14524 13.1875 5.28832 13.1875 5.4375C13.1875 5.58668 13.1282 5.72976 13.0227 5.83525C12.9173 5.94074 12.7742 6 12.625 6H1.375C1.22582 6 1.08274 5.94074 0.977253 5.83525C0.871763 5.72976 0.8125 5.58668 0.8125 5.4375ZM0.8125 0.9375C0.8125 0.788316 0.871763 0.645242 0.977253 0.539753C1.08274 0.434263 1.22582 0.375 1.375 0.375H12.625C12.7742 0.375 12.9173 0.434263 13.0227 0.539753C13.1282 0.645242 13.1875 0.788316 13.1875 0.9375C13.1875 1.08668 13.1282 1.22976 13.0227 1.33525C12.9173 1.44074 12.7742 1.5 12.625 1.5H1.375C1.22582 1.5 1.08274 1.44074 0.977253 1.33525C0.871763 1.22976 0.8125 1.08668 0.8125 0.9375Z" clip-rule="evenodd"/></svg>