<svg xmlns="http://www.w3.org/2000/svg" width="16" height="16" fill="none" viewBox="0 0 16 16"><g clip-path="url(#clip0)"><rect width="16" height="16" fill="#DC3545" rx="8"/><path fill="#DC3545" fill-rule="evenodd" d="M8 15C9.85652 15 11.637 14.2625 12.9497 12.9497C14.2625 11.637 15 9.85652 15 8C15 6.14348 14.2625 4.36301 12.9497 3.05025C11.637 1.7375 9.85652 1 8 1C6.14348 1 4.36301 1.7375 3.05025 3.05025C1.7375 4.36301 1 6.14348 1 8C1 9.85652 1.7375 11.637 3.05025 12.9497C4.36301 14.2625 6.14348 15 8 15ZM8 16C10.1217 16 12.1566 15.1571 13.6569 13.6569C15.1571 12.1566 16 10.1217 16 8C16 5.87827 15.1571 3.84344 13.6569 2.34315C12.1566 0.842855 10.1217 0 8 0C5.87827 0 3.84344 0.842855 2.34315 2.34315C0.842855 3.84344 0 5.87827 0 8C0 10.1217 0.842855 12.1566 2.34315 13.6569C3.84344 15.1571 5.87827 16 8 16Z" clip-rule="evenodd"/><path fill="#fff" fill-rule="evenodd" d="M11.8546 4.14592C11.9012 4.19236 11.9381 4.24754 11.9633 4.30828C11.9886 4.36903 12.0015 4.43415 12.0015 4.49992C12.0015 4.56568 11.9886 4.63081 11.9633 4.69155C11.9381 4.7523 11.9012 4.80747 11.8546 4.85392L4.85463 11.8539C4.76075 11.9478 4.63341 12.0005 4.50063 12.0005C4.36786 12.0005 4.24052 11.9478 4.14663 11.8539C4.05274 11.76 4 11.6327 4 11.4999C4 11.3671 4.05274 11.2398 4.14663 11.1459L11.1466 4.14592C11.1931 4.09935 11.2483 4.06241 11.309 4.0372C11.3697 4.012 11.4349 3.99902 11.5006 3.99902C11.5664 3.99902 11.6315 4.012 11.6923 4.0372C11.753 4.06241 11.8082 4.09935 11.8546 4.14592Z" clip-rule="evenodd"/><path fill="#fff" fill-rule="evenodd" d="M4.14689 4.14592C4.10033 4.19236 4.06339 4.24754 4.03818 4.30828C4.01297 4.36903 4 4.43415 4 4.49992C4 4.56568 4.01297 4.63081 4.03818 4.69155C4.06339 4.7523 4.10033 4.80747 4.14689 4.85392L11.1469 11.8539C11.2408 11.9478 11.3681 12.0005 11.5009 12.0005C11.6337 12.0005 11.761 11.9478 11.8549 11.8539C11.9488 11.76 12.0015 11.6327 12.0015 11.4999C12.0015 11.3671 11.9488 11.2398 11.8549 11.1459L4.85489 4.14592C4.80845 4.09935 4.75327 4.06241 4.69253 4.0372C4.63178 4.012 4.56666 3.99902 4.50089 3.99902C4.43513 3.99902 4.37001 4.012 4.30926 4.0372C4.24852 4.06241 4.19334 4.09935 4.14689 4.14592Z" clip-rule="evenodd"/></g><defs><clipPath id="clip0"><rect width="16" height="16" fill="#fff" rx="8"/></clipPath></defs></svg>