<svg xmlns="http://www.w3.org/2000/svg" width="24" height="24" fill="none" viewBox="0 0 24 24"><g clip-path="url(#clip0)"><path fill="#007BFF" fill-rule="evenodd" d="M15.663 15.6626C15.8023 15.5231 15.9678 15.4125 16.1499 15.337C16.332 15.2615 16.5272 15.2227 16.7243 15.2227C16.9214 15.2227 17.1166 15.2615 17.2987 15.337C17.4808 15.4125 17.6462 15.5231 17.7855 15.6626L23.5605 21.4376C23.842 21.7188 24.0002 22.1004 24.0003 22.4983C24.0005 22.8962 23.8426 23.2779 23.5613 23.5593C23.28 23.8408 22.8985 23.999 22.5006 23.9991C22.1027 23.9993 21.721 23.8413 21.4395 23.5601L15.6645 17.7851C15.5251 17.6458 15.4144 17.4803 15.339 17.2982C15.2635 17.1161 15.2246 16.921 15.2246 16.7238C15.2246 16.5267 15.2635 16.3315 15.339 16.1494C15.4144 15.9673 15.5251 15.8019 15.6645 15.6626H15.663Z" clip-rule="evenodd"/><path fill="#007BFF" fill-rule="evenodd" d="M9.75 18C10.8334 18 11.9062 17.7866 12.9071 17.372C13.9081 16.9574 14.8175 16.3497 15.5836 15.5836C16.3497 14.8175 16.9574 13.9081 17.372 12.9071C17.7866 11.9062 18 10.8334 18 9.75C18 8.66659 17.7866 7.5938 17.372 6.59286C16.9574 5.59193 16.3497 4.68245 15.5836 3.91637C14.8175 3.15029 13.9081 2.5426 12.9071 2.12799C11.9062 1.71339 10.8334 1.5 9.75 1.5C7.56196 1.5 5.46354 2.36919 3.91637 3.91637C2.36919 5.46354 1.5 7.56196 1.5 9.75C1.5 11.938 2.36919 14.0365 3.91637 15.5836C5.46354 17.1308 7.56196 18 9.75 18ZM19.5 9.75C19.5 12.3359 18.4728 14.8158 16.6443 16.6443C14.8158 18.4728 12.3359 19.5 9.75 19.5C7.16414 19.5 4.68419 18.4728 2.85571 16.6443C1.02723 14.8158 0 12.3359 0 9.75C0 7.16414 1.02723 4.68419 2.85571 2.85571C4.68419 1.02723 7.16414 0 9.75 0C12.3359 0 14.8158 1.02723 16.6443 2.85571C18.4728 4.68419 19.5 7.16414 19.5 9.75Z" clip-rule="evenodd"/></g><defs><clipPath id="clip0"><rect width="24" height="24" fill="#fff"/></clipPath></defs></svg>