<svg width="24" height="24" viewBox="0 0 24 24" fill="none" xmlns="http://www.w3.org/2000/svg">
<path fill-rule="evenodd" clip-rule="evenodd" d="M15.2184 6.96936C15.2881 6.89952 15.3708 6.8441 15.4619 6.80629C15.5531 6.76849 15.6507 6.74902 15.7494 6.74902C15.848 6.74902 15.9457 6.76849 16.0368 6.80629C16.128 6.8441 16.2107 6.89952 16.2804 6.96936L20.7804 11.4694C20.8502 11.539 20.9056 11.6218 20.9435 11.7129C20.9813 11.804 21.0007 11.9017 21.0007 12.0004C21.0007 12.099 20.9813 12.1967 20.9435 12.2878C20.9056 12.3789 20.8502 12.4617 20.7804 12.5314L16.2804 17.0314C16.1396 17.1722 15.9486 17.2513 15.7494 17.2513C15.5502 17.2513 15.3592 17.1722 15.2184 17.0314C15.0776 16.8905 14.9984 16.6995 14.9984 16.5004C14.9984 16.3012 15.0776 16.1102 15.2184 15.9694L19.1889 12.0004L15.2184 8.03136C15.1485 7.9617 15.0931 7.87893 15.0553 7.78781C15.0175 7.6967 14.998 7.59901 14.998 7.50036C14.998 7.40171 15.0175 7.30403 15.0553 7.21291C15.0931 7.1218 15.1485 7.03903 15.2184 6.96936Z" fill="white"/>
<path fill-rule="evenodd" clip-rule="evenodd" d="M3 12C3 11.8011 3.07902 11.6103 3.21967 11.4697C3.36032 11.329 3.55109 11.25 3.75 11.25H19.5C19.6989 11.25 19.8897 11.329 20.0303 11.4697C20.171 11.6103 20.25 11.8011 20.25 12C20.25 12.1989 20.171 12.3897 20.0303 12.5303C19.8897 12.671 19.6989 12.75 19.5 12.75H3.75C3.55109 12.75 3.36032 12.671 3.21967 12.5303C3.07902 12.3897 3 12.1989 3 12Z" fill="white"/>
</svg>
